/* XPM */
static char *f98b556f5d1547cbc818efd84fffef7eEs0zW2FPvM2tO2vy[] = {
/* columns rows colors chars-per-pixel */
"64 64 11 1 ",
"  c #091A07",
". c #091C0A",
"X c #0C210C",
"o c #132E15",
"O c #BFA100",
"+ c gold",
"@ c #BCA154",
"# c #C1A767",
"$ c #C9B481",
"% c #CFC093",
"& c white",
/* pixels */
"@@@@@@@@@@@@@@@@@@@@@@@@@@@@$$@@                                ",
"@@@@@@@@@@@@@@@@@@@@@@@@@@@@$$@@                                ",
"@@@@@@%%%%%%%%%%%%%%%%%%%%@@@@@@    XXXXXXXXXXXXXXXXXXXXXXXX    ",
"@@@@%%%%%%%%%%%%%%%%%%%%%%%%@@@@  XXXXXXXXXXXXXXXXXXXXXXXXXXX   ",
"@@@%%%########@@##########%%%@@@  XXXX    XXXXX           XXXX  ",
"@@@%%#########@@@###########%%@@  XX      ooXX             XXX  ",
"@@%%######@@@@@@@@##########%%@@  XX       ooX              XX  ",
"@@%%####@@@@@@@@@@##########%%@@  XX        ooXX            XX  ",
"@@%%###@@@@@@@@@@@##########%%@@  XX   ..    ooXX           XX  ",
"@@%%##@@@@@@@@@@############%%@@  XX    ..    ooXX          XX  ",
"@@%%###@@@@@@@##############%%@@  XXX   ....   ooXXXXX      XX  ",
"@@%%#####@@@#################%@@  XXXX   .....  ooXXXXXX    XX  ",
"@@%%##########################@@  XXXXX   .....  oooooXXX   XX  ",
"@@%%##########################@@  XXooX    ....   ooooooX   XX  ",
"@@%%##########################@@  XXooXX    ....      oooXXXXX  ",
"@@%%##########################@@  XXoooXX    ....       ooXXXX  ",
"@@%%###########@@##OOOOOOOOOOOOOOOOOOOOOOOOOO.......     ooXXX  ",
"@@%%##########@@@OO++++++++++++++++++&&&&&&++OO.......    oXXX  ",
"@@%%#########@@@O+++++++++++++++++++++&&&&&&+++O.......     XX  ",
"@@%%#########@@@O+++&&&&+++++++++++++++&&&&&&++O........    XX  ",
"@@%%#########@@@O++&+++++++++++++++++++&&&&&&&+O...... ..   XX  ",
"@@%%###########@O+++++++++++++++++++++++&&&&&&&O ..... ..   XX  ",
"@@%%###########@O++++++++++++++++++++++++&&&&&&O  .......   XX  ",
"@@%%############O+++++++OOOOOOOOOOOOOOOOO+&&&&&O  ......    XX  ",
"@@%%############O&+++++OOOOOOOOOOOOOOOOOOO+&&&&O.......     XX  ",
"@@%%############O&&++++OO+++++++++++++++OO++&&&O.....       XX  ",
"@@@%%###########O&&&+++OO+++++++++++++++OO++&&&O           XXX  ",
"@@@%%###########O&&&&++OO+++++++++++++++OO+++&&O           XXX  ",
"@@@@%%%%%%%%%%%%O&&&&&&OO+++++++++++++++OO++++&OXXXXXXXXXXXXX   ",
"@@@@@%%%%%%%%%%%O&&&&&&OO+++++++++++++++OO+++++OXXXXXXXXXXXXX   ",
"@@@@@@@@@@@@@@@@O+&&&&&OO&++++++++++++++OO+++++O                ",
"@@@@@@@@@@@@@@@@O++&&&&OO&&+++++++++++++OO+++++O                ",
"                O++&&&&OO&&+++++++++++++OO+++++O%%%%%%%%%%%%%%%%",
"                O+++&&&OO&&&++++++++++++OO+++++O%%%%%%%%%%%%%%%%",
"   XXXXXXXXXXXXXO++++&&OO&&&&+++++++++++OO+++++O#############%%%",
"   XXXXXXXXXXXXXO+++++&OO&&&&&++++++++++OO+++++O#############%%%",
"  XXX           O++++++OO&&&&&&+++++++++OO+++++O########@@@###%%",
"  XXX           O++++++OO&&&&&&&++++++++OO+++++O######@@@@@###%%",
"  XX            O++++++OO&&&&&&&&+++++++OO+++++O######@@@@@@##%%",
"  XX            O++++++OO+&&&&&&&+++++++OO+++++O######@@@@@@##%%",
"  XX   .   .... O++++++OOOOOOOOOOOOOOOOOOO+++++O#######@@@@###%%",
"  XX   .  ......O+++++++OOOOOOOOOOOOOOOOO++++++O@########@####%%",
"  XX   .  ......O++&++++++++&&&&&&&&+++++++++&+O@@############%%",
"  XX     .......O+&++++++++++&&&&&&&&++++++++&+O@@############%%",
"  XX     .......O++&&+++++++++&&&&&&&&++++++&++O@#############%%",
"  XX   .  ......O++++&+++++++++&&&&&&&&++++&+++O##############%%",
"  XX  ..  ....  .OO++++++++++++++&&&&&&&+++++OO########@@@####%%",
"  XX ...  ....  ...OOOOOOOOOOOOOOOOOOOOOOOOOO##########@@@@###%%",
"  XX....  ...   ..  ...     XX  %%###@@@@#############@@@@@###%%",
"  XX...   ...   ..  ....    XX  %%####@@#############@@@@@@###%%",
"  XX..  oooXX    .........  XX  %%##################@@@@@@####%%",
"  XX.    ooXX     .......   XX  %%#################@@@@@@#####%%",
"  XX  ..  ooXX        ..    XX  %%######@@@@######@@@@@@######%%",
"  XX  ..  ooXX          .   XX  %%####@@@@@@@@##@@@@@@@#######%%",
"  XX.....  ooXX         ..  XX  %%####@@@@@@@@@@@@@@@@########%%",
"  XX.....  ooXXX       ...  XX  %%####@@@@@@@@@@@@@@@#########%%",
"  XX  ....  ooXXXX    ...   XX  %%#####@@@@@@@@@@@@@##########%%",
"  XX   ...   oooXX          XX  %%######@@@@@@@@@@@@##########%%",
"  XXX   ..    ooXXX         XX  %%######@@@@@@@@@@@###########%%",
"  XXXX  ..    oXXXXX      XXXX  %%#######@@@@@@@@@@###########%%",
"   XXXXXXXXXXXXXXXXXXXXXXXXX..  %%#######@@@###@@@###########%%%",
"    XXXXXXXXXXXXXXXXXXXXXXXX    %%%%######@@####@@##########%%%%",
"                                %%%%%%%%%%%%%%%%%%%%%%%%%%%%%%%%",
"                                %%%%%%%%%%%%%%%%%%%%%%%%%%%%%%%%"
};
