/* XPM */
static char *xpm_[] = {
/* columns rows colors chars-per-pixel */
"70 70 14 1 ",
"  c gray5",
". c #282828",
"X c #393939",
"o c #165372",
"O c gray31",
"+ c #24759E",
"@ c #348CB9",
"# c #759FB3",
"$ c #389FD3",
"% c #53B1E0",
"& c #4AC2FF",
"* c #88A9B9",
"= c #9BC4D7",
"- c #BEE4F6",
/* pixels */
"#####*****=====OOOOO                              OOOOO=====*****#####",
"#####*****=====OOOOO                              OOOOO=====*****#####",
"#####*****=====OOOOO                              OOOOO=====*****#####",
"#####*****=====OOOOO                              OOOOO=====*****#####",
"#####*****=====OOOOO                              OOOOO=====*****#####",
"#####*****=====.....                              .....=====*****#####",
"#####*****=====.....                              .....=====*****#####",
"#####*****=====.....                              .....=====*****#####",
"#####*****=====.....                              .....=====*****#####",
"#####*****=====.....                              .....=====*****#####",
"#####*****=====-----..........&&&&&&&&&&..........-----=====*****#####",
"#####*****=====-----..........&&&&&&&&&&..........-----=====*****#####",
"#####*****=====-----..........&&&&&&&&&&..........-----=====*****#####",
"#####*****=====-----..........&&&&&&&&&&..........-----=====*****#####",
"#####*****=====-----..........&&&&&&&&&&..........-----=====*****#####",
"#####*****=====-----+++++%%%%%&&&&&&&&&&%%%%%+++++-----=====*****#####",
"#####*****=====-----+++++%%%%%&&&&&&&&&&%%%%%+++++-----=====*****#####",
"#####*****=====-----+++++%%%%%&&&&&&&&&&%%%%%+++++-----=====*****#####",
"#####*****=====-----+++++%%%%%&&&&&&&&&&%%%%%+++++-----=====*****#####",
"#####*****=====-----+++++%%%%%&&&&&&&&&&%%%%%+++++-----=====*****#####",
"#####*****=====-----+++++$$$$$&&&&&&&&&&$$$$$+++++-----=====*****#####",
"#####*****=====-----+++++$$$$$&&&&&&&&&&$$$$$+++++-----=====*****#####",
"#####*****=====-----+++++$$$$$&&&&&&&&&&$$$$$+++++-----=====*****#####",
"#####*****=====-----+++++$$$$$&&&&&&&&&&$$$$$+++++-----=====*****#####",
"#####*****=====-----+++++$$$$$&&&&&&&&&&$$$$$+++++-----=====*****#####",
"#####*****=====-----+++++$$$$$&&&&&&&&&&$$$$$+++++-----=====*****#####",
"#####*****=====-----+++++$$$$$&&&&&&&&&&$$$$$+++++-----=====*****#####",
"#####*****=====-----+++++$$$$$&&&&&&&&&&$$$$$+++++-----=====*****#####",
"#####*****=====-----+++++$$$$$&&&&&&&&&&$$$$$+++++-----=====*****#####",
"#####*****=====-----+++++$$$$$&&&&&&&&&&$$$$$+++++-----=====*****#####",
"#####*****=====-----+++++$$$$$&&&&&&&&&&$$$$$+++++-----=====*****#####",
"#####*****=====-----+++++$$$$$&&&&&&&&&&$$$$$+++++-----=====*****#####",
"#####*****=====-----+++++$$$$$&&&&&&&&&&$$$$$+++++-----=====*****#####",
"#####*****=====-----+++++$$$$$&&&&&&&&&&$$$$$+++++-----=====*****#####",
"#####*****=====-----+++++$$$$$&&&&&&&&&&$$$$$+++++-----=====*****#####",
"#####*****=====-----+++++@@@@@&&&&&&&&&&@@@@@+++++-----=====*****#####",
"#####*****=====-----+++++@@@@@&&&&&&&&&&@@@@@+++++-----=====*****#####",
"#####*****=====-----+++++@@@@@&&&&&&&&&&@@@@@+++++-----=====*****#####",
"#####*****=====-----+++++@@@@@&&&&&&&&&&@@@@@+++++-----=====*****#####",
"#####*****=====-----+++++@@@@@&&&&&&&&&&@@@@@+++++-----=====*****#####",
"#####*****=====XXXXXooooo+++++..........+++++oooooXXXXX=====*****#####",
"#####*****=====XXXXXooooo+++++..........+++++oooooXXXXX=====*****#####",
"#####*****=====XXXXXooooo+++++..........+++++oooooXXXXX=====*****#####",
"#####*****=====XXXXXooooo+++++..........+++++oooooXXXXX=====*****#####",
"#####*****=====XXXXXooooo+++++..........+++++oooooXXXXX=====*****#####",
"#####*****=====.....     XXXXX          XXXXX     .....=====*****#####",
"#####*****=====.....     XXXXX          XXXXX     .....=====*****#####",
"#####*****=====.....     XXXXX          XXXXX     .....=====*****#####",
"#####*****=====.....     XXXXX          XXXXX     .....=====*****#####",
"#####*****=====.....     XXXXX          XXXXX     .....=====*****#####",
"#####*****..........                              ..........*****#####",
"#####*****..........                              ..........*****#####",
"#####*****..........                              ..........*****#####",
"#####*****..........                              ..........*****#####",
"#####*****..........                              ..........*****#####",
"#####.....OOOOOOOOOO     OOOOO..........OOOOO     OOOOOOOOOO.....#####",
"#####.....OOOOOOOOOO     OOOOO..........OOOOO     OOOOOOOOOO.....#####",
"#####.....OOOOOOOOOO     OOOOO..........OOOOO     OOOOOOOOOO.....#####",
"#####.....OOOOOOOOOO     OOOOO..........OOOOO     OOOOOOOOOO.....#####",
"#####.....OOOOOOOOOO     OOOOO..........OOOOO     OOOOOOOOOO.....#####",
".....     OOOOO.....     ....................     .....OOOOO     .....",
".....     OOOOO.....     ....................     .....OOOOO     .....",
".....     OOOOO.....     ....................     .....OOOOO     .....",
".....     OOOOO.....     ....................     .....OOOOO     .....",
".....     OOOOO.....     ....................     .....OOOOO     .....",
".....     ..........     ....................     ..........     .....",
".....     ..........     ....................     ..........     .....",
".....     ..........     ....................     ..........     .....",
".....     ..........     ....................     ..........     .....",
".....     ..........     ....................     ..........     ....."
};
