/* XPM */
static char *_03ae7d95e964acaa8d5e66345bde0faW6CwVAasqIOh01Sn[] = {
/* columns rows colors chars-per-pixel */
"64 64 72 1 ",
"  c None",
". c #3D3518",
"X c #3E3618",
"o c #3E361C",
"O c #423A1A",
"+ c #433A1A",
"@ c #433A1B",
"# c #443B1B",
"$ c #473E1C",
"% c #403A24",
"& c #403B26",
"* c #423D2B",
"= c #423E2E",
"- c #514720",
"; c #534820",
": c #544921",
"> c #554921",
", c #564B22",
"< c #574C22",
"1 c #444034",
"2 c #444135",
"3 c #444237",
"4 c #46453D",
"5 c #544F3B",
"6 c #615526",
"7 c #635627",
"8 c #63582E",
"9 c #6A5C2A",
"0 c #6B5D2A",
"q c #605735",
"w c #6B5F30",
"e c #665D3A",
"r c #665D3B",
"t c #665E3C",
"y c #675E3C",
"u c #70602C",
"i c #71602C",
"p c #70602D",
"a c #72612D",
"s c #72632D",
"d c #74632E",
"f c #74642E",
"g c #74642F",
"h c #76652F",
"j c #736633",
"k c #776630",
"l c #786730",
"z c #756835",
"x c #796A30",
"c c #7A6B30",
"v c #7B6B30",
"b c #7B6B31",
"n c #7C6A32",
"m c #7D6B32",
"M c #7B6C32",
"N c #7C6C31",
"B c #7D6D31",
"V c #474641",
"C c #484846",
"Z c #494948",
"A c #494A4A",
"S c #585340",
"D c #595442",
"F c #837134",
"G c #857235",
"H c #867235",
"J c #877336",
"K c #877436",
"L c #887436",
"P c #8A7637",
"I c #8A7737",
"U c #8C7838",
/* pixels */
"                                                                ",
"                                                                ",
"   u0i0iuuu0uuuuuuuiuuu0uuuuuuuuu0i0i0uuuuuuu0i0i0uuuu0iuuuiuuu ",
"  uuiijiuujijuuuuuuuuuujuuuuuuuuujiiiiijuuuuujiiiiijuuuiuujiuuuu",
"  iiknmmmmnmnmmmmnnmmBnnnnmnnnmnnnnnnnnnnnnnnnnnnnmnnnvmnFmmnkuu",
"  jumPUPPUPUPPPPUUIUUUIIUUUUUPUIUUUUPPUUUUUUUUUUUPUUUPUUPPPPUnuu",
"  uumPUHHFFFFFHHFFFFFFFFHFFFHFFFFFFFFFHHFFFFFFFFHHFFFFFFFFHPPmuu",
"  dumPPlffgggdddggggkufjjdddfffffffkukukffffffffkujdgggguklLPmju",
"  d0BUKkuupppuj0uuuuuuuuuuiiiii0uuuuuuuuj0iiiuuuju0iiiuuiidHPnii",
"  uinUKuuO@;M7@@OOcMf#OOO9B$@+@:MB,@OO$B9O@@OsMv+@@O7B<@@aaHUFii",
"  jinUKku..;B6....vBs....9N+...;BB;...OB9....sMv....7B;..akHJFii",
"  uumUHku..;B6....vBs....9NO...;BB;...OB9....sNv....6B;..0jFUn0i",
"  dimUUui..-B6....vBf....9BO...;BB;...OB9....uBv....6B>O.adHUFwi",
"  jimUHji..-B6....vvf....9BO...;BB;...OB9....gBv....6m>..idHUnii",
"  iinUHk0.O-B6....vMf....9BO..X;BB;...@B9....gBv....6m-..adHPnii",
"  a0nUJku..-B6....vvs....9BO..X;BB;...@M9....uBM....6m;O.wkJPnii",
"  awmUUkp..-M7....vNs....0NO..X;BB-...OB9....sBc....6N:XX0dLPm0i",
"  aamPJup.X;M6....vNsX...0NO..X;BB:...OB9....sBc....7N:O.idFUFii",
"  damUJku..-B6....MNs....0NO...:BB-X..OB9....sBc....6N-O.idLPmii",
"  uimPHju..;B6....MMs....0NO...-BB:...OB9....sBc....6N:..idFPmii",
"  d0mUPdu.X;B6....vBs....0NO...:BB-X..OB9....sBc....6m:..ikLUm0i",
"  ijmUKdu.X;B6....vBs....0NO...:BB-X..OB9....sBv....6m:..iiFUFai",
"  uunUKku..-B6....vBs....0NO...-BB-X..XB9....sBv....6N:..wkFPnai",
"  uunUUuu.X-B6....vNs....0NO...:BB-XXXOB9....sBv....6N:O.ikJPnai",
"  dimUKj0.O-B6....jjw....9MO...:BB:...+N9....sBv....6B-O.idHPnii",
"  uimUKku..-B6....5D5....9BO...-BB-...+B9....sNv....6B>..idHPFii",
"  ujmUHki..-B6..XXAA4X..X9BO...:BB:...+B9....sNv....6B>..wdHPnii",
"  iimUKui..-B6..13yyq....9BO...:BB:..X+B9....sNv....6B-O.adHPnai",
"  iimPLki.O-m6..4ZMBf....9BOX..-BB-...+v9....fMv....6B>..ikHUFwi",
"  ijnULu0..-m8**22vBs....9BO..X:BB:...+B9....iNv....6B>..iaHUnii",
"  uuFUHjj..-NeCC&XMBs....9MO...-BB:...+B9....sBv....6m;..ikFPnii",
"  uumUHki..-NeAA%.vMs....9BO...-BB-...+B9....sBv....6m;O.wkJPnii",
"  ijmUKgu.X-BtAA&.vBf....9BO...;BB-XX.+v9....sBc....6B:X.suKImuu",
"  iumUKdu.X-BeCC&XvBf....9BO...;BB-.X.+B9....sBc....6B:X.sfKUBuu",
"  uumUKju.X-B8=*22Mvs....9BO...;BB-...+B9....sBc....6B:X.ufGUFuu",
"  uumUHku.X-B6..4AMMs....9BO...;BB:X..+B9....sBc....6B:X.ufFUnuu",
"  dimPPuu.X;B6..=2ttq....9BO...;BB:...+B9....sBc....6B:X.idHUnii",
"  uiBULku..-B6....AAV....9BO...;BB:...XB9....sBc....6B:X.idHUnii",
"  uumPHjp.X-B6....5D5....9BO...;BB:...+B9....sBc....6B-..0dLUnwi",
"  ijBUKjp.X-B6....zzw....9BO...;BB:...+B9....sBc....6B:..adLUnii",
"  iinUUjp.X-M7....vMf....9BO...;BB-X..+B0....sBc....7B>X.aiFPnii",
"  k0nULuu.X-M6....vBs....9BO...;BB-X..+B0....sBc....6B;X.akLUFii",
"  uimUHku.X-B6X...MBs....9BO...;BB;X..XB0....sBc....6B>X.ikFPnai",
"  dimPHju.X-B6....vBs....9BO...;BB-XXXOB0....sBc....6B>..wuLUnwi",
"  ijmUPuu.X-v6....vBs....9BO...;BB;...+B9....sBc....6m;..pdHUnii",
"  iumUKku.X-B6...XvNs....9BO...;BB;...+B9....sBc....7B>..adHUFii",
"  uumUKguXX-B6....vMs....9M@...;BB;...XB9....sBc....6m>..pdJJFii",
"  uumUKguXX-B6....vvs....9B@...;BB;X..+B9....sBc....6n>..pdJUn0i",
"  dimUKgu..;B6....vvf....9vO...;BB;...OB9....sBv....6B,X.ugLUmuu",
"  uimUKgu..-B7....vMs....9BO...;BB;...OB9....sBv....6B;X.uuHUmuu",
"  uumUPuu..;M6....MBs...X9BO...;BB;...OB9....sMv....6M,X.pjHUmuu",
"  ijmUHju..;B6....vBs...X9BO...;BB;...OB9....sMv....7m;X.ufHUFuu",
"  iinPKku..-B6....cMu....9BOX..;BB;...OB9....fMv....7M;X.ikHUm0i",
"  k0mUHkj..-B6....cMf....9BO...;BB;...OB9....fMv....6B>..iaFUmai",
"  uimUUu0@@,m7OO@@nMfO@@O9M$O#O<MM<O##$M0OOO@uMnO#@@7M<#@ikFPnai",
"  dimUJjiippuuuuuuuuuuuuuuuuuuuuuuuuuuuuuuuuuuuuuuuuuuuuiwkJPnai",
"  a0nUUlkuffffffkukfffffggggddjkkfffffffkukfffffggggddjkkdlJPnii",
"  ainUUJFHFFFFFFFFFFFFFFFFFHFFFJFFFFFFFFFFFFFFFFFFFHFFFJFFJPUFii",
"  jinPPPUUUUUUUUUUUUUUUUUUPPPPPPUUUUUUUUUUUUUUUUUUPPPPPPPPPPPmwi",
"  uilnnnnnnnnnnnnnnnnnnnmmmmmmnnnnnnnnnnnnnnnnnnmmmmmmnnmnnnnkii",
"  dijiii0i0juuupuuuuijuu0uuujiii0i0juuupuuuuijuu0uuujiii0i0jiiai",
"   iuu0iuiiuuuuuuuuuiuuuuuuuuu0iuiiuuuuuuuuuiuuuuuuuuu0iuiiuiii ",
"                                                                ",
"                                                                "
};
