/* XPM */
static char *xpm_[] = {
/* columns rows colors chars-per-pixel */
"70 70 26 1 ",
"  c #09110A",
". c #0C170E",
"X c #0E1C11",
"o c #102013",
"O c #307265",
"+ c #444644",
"@ c gray38",
"# c #666A66",
"$ c #727272",
"% c #E01F1F",
"& c #1FE034",
"* c #3A8071",
"= c #3E8D7D",
"- c #329581",
"; c #33AB93",
": c #1BC1A0",
"> c #26C6A5",
", c #1CE0B8",
"< c #00FFCB",
"1 c #3FFFD8",
"2 c #888888",
"3 c #8D8D8D",
"4 c gray62",
"5 c gray74",
"6 c #D7D7D7",
"7 c #F6F6F6",
/* pixels */
".....oooooXXXXX@@@@@5555555555##########5555555555@@@@@..........     ",
".....oooooXXXXX@@@@@5555555555##########5555555555@@@@@..........     ",
".....oooooXXXXX@@@@@5555555555##########5555555555@@@@@..........     ",
".....oooooXXXXX@@@@@5555555555##########5555555555@@@@@..........     ",
".....oooooXXXXX@@@@@5555555555##########5555555555@@@@@..........     ",
"     XXXXX@@@@@66666#####+++++,,,,,,,,,,+++++#####55555@@@@@.....     ",
"     XXXXX@@@@@66666#####+++++,,,,,,,,,,+++++#####55555@@@@@.....     ",
"     XXXXX@@@@@66666#####+++++,,,,,,,,,,+++++#####55555@@@@@.....     ",
"     XXXXX@@@@@66666#####+++++,,,,,,,,,,+++++#####55555@@@@@.....     ",
"     XXXXX@@@@@66666#####+++++,,,,,,,,,,+++++#####55555@@@@@.....     ",
"     @@@@@77777#####+++++11111>>>>>>>>>>,,,,,+++++#####55555@@@@@     ",
"     @@@@@77777#####+++++11111>>>>>>>>>>,,,,,+++++#####55555@@@@@     ",
"     @@@@@77777#####+++++11111>>>>>>>>>>,,,,,+++++#####55555@@@@@     ",
"     @@@@@77777#####+++++11111>>>>>>>>>>,,,,,+++++#####55555@@@@@     ",
"     @@@@@77777#####+++++11111>>>>>>>>>>,,,,,+++++#####55555@@@@@     ",
"     @@@@@77777+++++11111>>>>>;;;;;;;;;;>>>>>,,,,,+++++55555@@@@@     ",
"     @@@@@77777+++++11111>>>>>;;;;;;;;;;>>>>>,,,,,+++++55555@@@@@     ",
"     @@@@@77777+++++11111>>>>>;;;;;;;;;;>>>>>,,,,,+++++55555@@@@@     ",
"     @@@@@77777+++++11111>>>>>;;;;;;;;;;>>>>>,,,,,+++++55555@@@@@     ",
"     @@@@@77777+++++11111>>>>>;;;;;;;;;;>>>>>,,,,,+++++55555@@@@@     ",
"     @@@@@66666+++++<<<<<;;;;;;;;;;;;;;;;;;;;,,,,,+++++44444@@@@@     ",
"     @@@@@66666+++++<<<<<;;;;;;;;;;;;;;;;;;;;,,,,,+++++44444@@@@@     ",
"     @@@@@66666+++++<<<<<;;;;;;;;;;;;;;;;;;;;,,,,,+++++44444@@@@@     ",
"     @@@@@66666+++++<<<<<;;;;;;;;;;;;;;;;;;;;,,,,,+++++44444@@@@@     ",
"     @@@@@66666+++++<<<<<;;;;;;;;;;;;;;;;;;;;,,,,,+++++44444@@@@@     ",
"     @@@@@55555++++++++++@@@@@++++++++++@@@@@++++++++++44444@@@@@     ",
"     @@@@@55555++++++++++@@@@@++++++++++@@@@@++++++++++44444@@@@@     ",
"     @@@@@55555++++++++++@@@@@++++++++++@@@@@++++++++++44444@@@@@     ",
"     @@@@@55555++++++++++@@@@@++++++++++@@@@@++++++++++44444@@@@@     ",
"     @@@@@55555++++++++++@@@@@++++++++++@@@@@++++++++++44444@@@@@     ",
"XXXXX@@@@@44444+++++:::::-----====================+++++22222@@@@@XXXXX",
"XXXXX@@@@@44444+++++:::::-----====================+++++22222@@@@@XXXXX",
"XXXXX@@@@@44444+++++:::::-----====================+++++22222@@@@@XXXXX",
"XXXXX@@@@@44444+++++:::::-----====================+++++22222@@@@@XXXXX",
"XXXXX@@@@@44444+++++:::::-----====================+++++22222@@@@@XXXXX",
"XXXXX@@@@@44444+++++:::::=====**********=====-----+++++22222@@@@@XXXXX",
"XXXXX@@@@@44444+++++:::::=====**********=====-----+++++22222@@@@@XXXXX",
"XXXXX@@@@@44444+++++:::::=====**********=====-----+++++22222@@@@@XXXXX",
"XXXXX@@@@@44444+++++:::::=====**********=====-----+++++22222@@@@@XXXXX",
"XXXXX@@@@@44444+++++:::::=====**********=====-----+++++22222@@@@@XXXXX",
"XXXXX@@@@@44444+++++-----*****OOOOOOOOOO*****=====+++++22222@@@@@XXXXX",
"XXXXX@@@@@44444+++++-----*****OOOOOOOOOO*****=====+++++22222@@@@@XXXXX",
"XXXXX@@@@@44444+++++-----*****OOOOOOOOOO*****=====+++++22222@@@@@XXXXX",
"XXXXX@@@@@44444+++++-----*****OOOOOOOOOO*****=====+++++22222@@@@@XXXXX",
"XXXXX@@@@@44444+++++-----*****OOOOOOOOOO*****=====+++++22222@@@@@XXXXX",
"XXXXX@@@@@33333+++++*****OOOOOOOOOOOOOOOOOOOO=====+++++33333@@@@@XXXXX",
"XXXXX@@@@@33333+++++*****OOOOOOOOOOOOOOOOOOOO=====+++++33333@@@@@XXXXX",
"XXXXX@@@@@33333+++++*****OOOOOOOOOOOOOOOOOOOO=====+++++33333@@@@@XXXXX",
"XXXXX@@@@@33333+++++*****OOOOOOOOOOOOOOOOOOOO=====+++++33333@@@@@XXXXX",
"XXXXX@@@@@33333+++++*****OOOOOOOOOOOOOOOOOOOO=====+++++33333@@@@@XXXXX",
"+++++$$$$$33333+++++OOOOOOOOOOOOOOOOOOOOOOOOOOOOOO+++++2222233333+++++",
"+++++$$$$$33333+++++OOOOOOOOOOOOOOOOOOOOOOOOOOOOOO+++++2222233333+++++",
"+++++$$$$$33333+++++OOOOOOOOOOOOOOOOOOOOOOOOOOOOOO+++++2222233333+++++",
"+++++$$$$$33333+++++OOOOOOOOOOOOOOOOOOOOOOOOOOOOOO+++++2222233333+++++",
"+++++$$$$$33333+++++OOOOOOOOOOOOOOOOOOOOOOOOOOOOOO+++++2222233333+++++",
"++++++++++33333@@@@@++++++++++++++++++++++++++++++@@@@@$$$$$++++++++++",
"++++++++++33333@@@@@++++++++++++++++++++++++++++++@@@@@$$$$$++++++++++",
"++++++++++33333@@@@@++++++++++++++++++++++++++++++@@@@@$$$$$++++++++++",
"++++++++++33333@@@@@++++++++++++++++++++++++++++++@@@@@$$$$$++++++++++",
"++++++++++33333@@@@@++++++++++++++++++++++++++++++@@@@@$$$$$++++++++++",
"$$$$$++++++++++33333@@@@@@@@@@++++++++++@@@@@@@@@@33333++++++++++$$$$$",
"$$$$$++++++++++33333@@@@@@@@@@++++++++++@@@@@@@@@@33333++++++++++$$$$$",
"$$$$$++++++++++33333@@@@@@@@@@++++++++++@@@@@@@@@@33333++++++++++$$$$$",
"$$$$$++++++++++33333@@@@@@@@@@++++++++++@@@@@@@@@@33333++++++++++$$$$$",
"$$$$$++++++++++33333@@@@@@@@@@++++++++++@@@@@@@@@@33333++++++++++$$$$$",
"@@@@@$$$$$++++++++++33333&&&&&@@@@@@@@@@%%%%%33333++++++++++$$$$$@@@@@",
"@@@@@$$$$$++++++++++33333&&&&&@@@@@@@@@@%%%%%33333++++++++++$$$$$@@@@@",
"@@@@@$$$$$++++++++++33333&&&&&@@@@@@@@@@%%%%%33333++++++++++$$$$$@@@@@",
"@@@@@$$$$$++++++++++33333&&&&&@@@@@@@@@@%%%%%33333++++++++++$$$$$@@@@@",
"@@@@@$$$$$++++++++++33333&&&&&@@@@@@@@@@%%%%%33333++++++++++$$$$$@@@@@"
};
