/* XPM */
static char *_e602b0171d2441f9479449075091246Sn9p8evphQUDa1NT[] = {
/* columns rows colors chars-per-pixel */
"64 64 150 2 ",
"   c None",
".  c #010101",
"X  c #071402",
"o  c #091505",
"O  c #091A03",
"+  c #0B1508",
"@  c #0D180A",
"#  c #121704",
"$  c #151B05",
"%  c #181E07",
"&  c #161418",
"*  c #0C2602",
"=  c #0E2A03",
"-  c #0E2208",
";  c #172607",
":  c #182507",
">  c #122D04",
",  c #182C04",
"<  c #12250A",
"1  c #182508",
"2  c #132A0C",
"3  c #1C2C0B",
"4  c #123404",
"5  c #143B05",
"6  c #1A3804",
"7  c #1D330C",
"8  c #1F2E10",
"9  c #1F271F",
"0  c #1A3711",
"q  c #1A3811",
"w  c #222B06",
"e  c #222B08",
"r  c #243906",
"t  c #25310A",
"y  c #29340B",
"u  c #22390F",
"i  c #2C3D0E",
"p  c #313E0C",
"a  c #2B301D",
"s  c #164504",
"d  c #194508",
"f  c #2F4911",
"g  c #334B13",
"h  c #3A4F12",
"j  c #247206",
"k  c #277E05",
"l  c #287F06",
"z  c #2B7A0B",
"x  c #266115",
"c  c #296216",
"v  c #2B6619",
"b  c #2B6E18",
"n  c #2E7319",
"m  c #31741C",
"M  c #327C1C",
"N  c #354325",
"B  c #3B4521",
"V  c #314529",
"C  c #367222",
"Z  c #387526",
"A  c #377B22",
"S  c #3B7E27",
"D  c #427D30",
"F  c #2A8406",
"G  c #2B8806",
"H  c #2B8308",
"J  c #2D8A09",
"K  c #308E0B",
"L  c #2E9406",
"P  c #33940C",
"I  c #349B0B",
"U  c #328610",
"Y  c #338B11",
"T  c #36811F",
"R  c #399D12",
"E  c #34A607",
"W  c #35A807",
"Q  c #37A00D",
"!  c #39A30E",
"~  c #36AA09",
"^  c #38AC0A",
"/  c #3CB30D",
"(  c #3AA012",
")  c #3EAC13",
"_  c #3FB610",
"`  c #378320",
"'  c #3B8325",
"]  c #3B8C23",
"[  c #3F832A",
"{  c #3D9423",
"}  c #6E8F14",
"|  c #6C8C1A",
" . c #719315",
".. c #779A1A",
"X. c #7A9C1B",
"o. c #40B80F",
"O. c #41B413",
"+. c #41B911",
"@. c #7DA217",
"#. c #7EA11E",
"$. c #43842E",
"%. c #428D2B",
"&. c #409626",
"*. c #45932D",
"=. c #459B2B",
"-. c #499E2F",
";. c #478235",
":. c #479430",
">. c #4C9A35",
",. c #4E9339",
"<. c #519F3B",
"1. c #7D9E20",
"2. c #4AA030",
"3. c #56A43E",
"4. c #7FA222",
"5. c #46C415",
"6. c #48C716",
"7. c #48C816",
"8. c #4AC918",
"9. c #81A51D",
"0. c #86AC1E",
"q. c #8DB61B",
"w. c #8FB91A",
"e. c #92BD1D",
"r. c #82A622",
"t. c #86AB23",
"y. c #89AD25",
"u. c #8CB321",
"i. c #90B725",
"p. c #91B925",
"a. c #91B52C",
"s. c #94BB2B",
"d. c #98BF2A",
"f. c #92B435",
"g. c #95C01F",
"h. c #96C220",
"j. c #9BC624",
"k. c #9DC925",
"l. c #9AC22A",
"z. c #A0CD27",
"x. c #A2CF2A",
"c. c #A5D22B",
"v. c #AAD72E",
"b. c #ACD92F",
"n. c #A4CD31",
"m. c #AEDB30",
"M. c #B0DE32",
"N. c #B5E236",
"B. c #BBEA3A",
"V. c #A5AA97",
/* pixels */
"                                                                                                                                ",
"                                                                                                                                ",
"                                                                                                                                ",
"                                                                                                                                ",
"                                                                                                                                ",
"                                                                                                                                ",
"                                                                                                                                ",
"                                                                                                                                ",
"                                                                                                                                ",
"                                                                                                                                ",
"                                                                                              $ % $                             ",
"                                          + + X .   % % $ : $ $ $ $ $                     $ y r.s.r.y                           ",
"                              + + + o   + m ` c 1 y y.d.s.p.p.p.u.u.#.t $               y y.l.x.c.c.r.$                         ",
"                            2 [ %.%.A - @ n n f y.l.m.m.m.c.s.u.u.u.j.u.| 3 @         y a.m.v.x.p.k.p.t                         ",
"                          O $.*.2.=.&.' n - i a.N.M.m.m.m.y.i 3 3 i #.u.h ;.S @     y y.v.c.x.#.i #.k.r.$                       ",
"                          @ Z 7 ' &.&.Y n u a.B.B.N.m.v.y.f $.>.3.,.g 4.4.N @ . # t r.v.c.c.i.e . w i.p.%                       ",
"                            o   < M ] n f a.B.B.B.B.N.l.p [ :.>.<.3.,.i f.V.& o X.u.k.v.c.z.u.# . # u.i.%                       ",
"                            .     @ x u a.B.B.B.B.B.N.l.i C u 3 8 V ;.3 r.B . # u.z.k.v.c.k.u.# . # u.u.$                       ",
"                                o X X e n.B.B.B.B.N.b.c.t.h X.u.f.V.9 $ y.#.e e u.k.z.v.c.k.u.# . # u.y.%                       ",
"                              - n b 1 t.N.B.B.B.N.b.c.c.k.u.j.k.u.a . # q.k.q.u.j.k.k.v.c.z.q.# . # u.q.$                       ",
"                            < M Y M 3 l.M.N.B.N.b.c.c.z.k.k.k.k.u.w . # u.k.k.k.j.h.j.v.c.z.q.# . # u.u.$                       ",
"                          + A &.&.M 3 d.m.M.N.m.c.x.z.k.k.k.k.k.l.9.e e u.k.k.j.h.h.j.v.c.z.y.# . # u.u.$                       ",
"                      +   < ] &.&.T 3 d.m.m.m.c.x.z.k.k.k.k.k.k.k.j.u.u.j.j.j.h.h.h.h.v.c.z.y.# . # u.p.$                       ",
"                    @ Z q [ =.&.{ M 3 s.c.c.c.c.k.k.k.k.k.j.j.k.k.k.k.k.k.g.g.h.h.e.e.c.b.c.u.e . w u.p.%                       ",
"                    @ [ *.>.=.{ { M 3 0.x.c.x.z.j.k.j.k.k.k.k.k.k.k.k.j.h.h.h.h.e.e.q.g.c.b.x.r.i #.j.r.$                       ",
"                      2 ' =.=.{ { b ; 0.j.k.k.k.k.k.k.k.k.k.k.k.k.j.h.h.h.h.h.e.e.w.w.w.e.j.b.x.p.k.u.t                         ",
"                        < A ' ` n > ; ..g.h.h.k.k.k.k.k.k.k.k.k.h.h.h.h.g.g.p.e.w.q.@.@.} p y.c.z.k.#.$                         ",
"                          o o o - v c 7 ..h.h.h.g.g.j.j.k.k.g.g.h.h.h.h.g.w.e.w.w. .w # # . t y.i.#.t                           ",
"                                  + X . e X.h.g.g.h.g.j.g.g.g.g.g.e.g.g.e.w.w.@. .w           % % $                             ",
"                                          e X.e.h.h.g.g.j.g.g.e.g.e.w.w.w.w. .w #                                               ",
"                                            t  .9.e.g.g.g.e.e.e.e.w.w.q.@. .w                                                   ",
"                                              # w ..w.w.e.e.e.w.@.@.@. .w #                                                     ",
"                                                  w  .@.@.@.@. .r ; # #                                                         ",
"                                                    # # > , , 6 F j X                                                           ",
"                                                      X j l k k F *                                                             ",
"                                                        O o * * * .                                                             ",
"                                                          X F I F X                                                             ",
"                                                          X I ^ L X                                                             ",
"                                                          O I ^ F X                                                             ",
"                                                          O I I *                                                               ",
"                                                          O I I O                                                               ",
"                                                          X ! I O     O O O O O                                                 ",
"                                                O O O o O = P R O   = P ! ) R K o                                               ",
"                                            O 4 R ) ! ! I J 5 P * X K _ ( R 5 = O O O O                                         ",
"                                          O R O.5.5.+.o.+.I > ! P * I P 5 4 J P I I I P * O                                     ",
"                                          > R O.) ! ! ! _ I 5 P ( 5 z s G L ~ / / / o.o.! P =                                   ",
"                                        + z 5 > 4 > * 5 K I k 5 ) R 4 F W ^ ^ / / / o.+.+.+.P o                                 ",
"                                        O 5 P ( I I I K 5 * * * P P 4 L W ^ ^ / / / / o.+.+.) >                                 ",
"                                      > R ( _ +.+._ / / I L P J 4 4 G E ~ ^ ^ / / / / +.+.+.5.R O                               ",
"                                    4 R 5.7.+.+._ _ / / / ^ ^ W L L E E ^ ^ ~ ^ / / / ! +.5.6.) O                               ",
"                                  O R 5.7.5.+._ _ _ / / / ~ ^ ^ W W W W ~ ^ ^ ^ ^ I J 5 P ) 5.R O                               ",
"                                  O ) 6.5.5.+.+._ / / / / ^ ^ ~ E E L E W ~ ^ ^ J = o   > d R >                                 ",
"                                  O O.6.5.! ! _ _ / / / / ~ ^ ^ E F 4 G E W ~ J =     O K R R O                                 ",
"                                  - O.8.( = * P I E ^ / ^ ^ ^ L F *   = F L F *         - O O                                   ",
"                                  O O.+.d     O O * J L P L G * O       X O O                                                   ",
"                                  @ R O.Y O         O O O O O                                                                   ",
"                                    O O O                                                                                       ",
"                                                                                                                                ",
"                                                                                                                                ",
"                                                                                                                                ",
"                                                                                                                                ",
"                                                                                                                                ",
"                                                                                                                                ",
"                                                                                                                                "
};