/* XPM */
static char *xpm_[] = {
/* columns rows colors chars-per-pixel */
"70 70 5 1 ",
"  c black",
". c #464646",
"X c #9A9A9A",
"o c gray79",
"O c #F4F4F4",
/* pixels */
"                         ....................                         ",
"                         ....................                         ",
"                         ....................                         ",
"                         ....................                         ",
"                         ....................                         ",
"                    .....OOOOOOOOOOOOOOOOOOOO.....                    ",
"                    .....OOOOOOOOOOOOOOOOOOOO.....                    ",
"                    .....OOOOOOOOOOOOOOOOOOOO.....                    ",
"                    .....OOOOOOOOOOOOOOOOOOOO.....                    ",
"                    .....OOOOOOOOOOOOOOOOOOOO.....                    ",
"               .....OOOOOooooo..........oooooOOOOO.....               ",
"               .....OOOOOooooo..........oooooOOOOO.....               ",
"               .....OOOOOooooo..........oooooOOOOO.....               ",
"               .....OOOOOooooo..........oooooOOOOO.....               ",
"               .....OOOOOooooo..........oooooOOOOO.....               ",
"               .....ooooo.....oooooooooo.....ooooo.....               ",
"               .....ooooo.....oooooooooo.....ooooo.....               ",
"               .....ooooo.....oooooooooo.....ooooo.....               ",
"               .....ooooo.....oooooooooo.....ooooo.....               ",
"               .....ooooo.....oooooooooo.....ooooo.....               ",
"               .....ooooo.....oooooooooo.....ooooo.....               ",
"               .....ooooo.....oooooooooo.....ooooo.....               ",
"               .....ooooo.....oooooooooo.....ooooo.....               ",
"               .....ooooo.....oooooooooo.....ooooo.....               ",
"               .....ooooo.....oooooooooo.....ooooo.....               ",
"               .....ooooooooooooooo.....oooooooooo.....               ",
"               .....ooooooooooooooo.....oooooooooo.....               ",
"               .....ooooooooooooooo.....oooooooooo.....               ",
"               .....ooooooooooooooo.....oooooooooo.....               ",
"               .....ooooooooooooooo.....oooooooooo.....               ",
"               .....oooooooooo.....ooooooooooooooo.....               ",
"               .....oooooooooo.....ooooooooooooooo.....               ",
"               .....oooooooooo.....ooooooooooooooo.....               ",
"               .....oooooooooo.....ooooooooooooooo.....               ",
"               .....oooooooooo.....ooooooooooooooo.....               ",
"                    .....ooooo.....oooooooooo.....                    ",
"                    .....ooooo.....oooooooooo.....                    ",
"                    .....ooooo.....oooooooooo.....                    ",
"                    .....ooooo.....oooooooooo.....                    ",
"                    .....ooooo.....oooooooooo.....                    ",
"                         oooooooooooooooooooo                         ",
"                         oooooooooooooooooooo                         ",
"                         oooooooooooooooooooo                         ",
"                         oooooooooooooooooooo                         ",
"                         oooooooooooooooooooo                         ",
"          ...............ooooo.....oooooooooo...............          ",
"          ...............ooooo.....oooooooooo...............          ",
"          ...............ooooo.....oooooooooo...............          ",
"          ...............ooooo.....oooooooooo...............          ",
"          ...............ooooo.....oooooooooo...............          ",
"     .....oooooooooooooooooooooooooooooooooooooooooooooooooo.....     ",
"     .....oooooooooooooooooooooooooooooooooooooooooooooooooo.....     ",
"     .....oooooooooooooooooooooooooooooooooooooooooooooooooo.....     ",
"     .....oooooooooooooooooooooooooooooooooooooooooooooooooo.....     ",
"     .....oooooooooooooooooooooooooooooooooooooooooooooooooo.....     ",
".....oooooooooooooooooooooooooooooooooooooooooooooooooooooooooooo.....",
".....oooooooooooooooooooooooooooooooooooooooooooooooooooooooooooo.....",
".....oooooooooooooooooooooooooooooooooooooooooooooooooooooooooooo.....",
".....oooooooooooooooooooooooooooooooooooooooooooooooooooooooooooo.....",
".....oooooooooooooooooooooooooooooooooooooooooooooooooooooooooooo.....",
"XXXXXoooooXXXXXooooooooooXXXXXXXXXXXXXXXooooooooooXXXXXooooooooooXXXXX",
"XXXXXoooooXXXXXooooooooooXXXXXXXXXXXXXXXooooooooooXXXXXooooooooooXXXXX",
"XXXXXoooooXXXXXooooooooooXXXXXXXXXXXXXXXooooooooooXXXXXooooooooooXXXXX",
"XXXXXoooooXXXXXooooooooooXXXXXXXXXXXXXXXooooooooooXXXXXooooooooooXXXXX",
"XXXXXoooooXXXXXooooooooooXXXXXXXXXXXXXXXooooooooooXXXXXooooooooooXXXXX",
"XXXXXXXXXXXXXXXXXXXXXXXXXXXXXXXXXXXXXXXXXXXXXXXXXXXXXXXXXXXXXXXXXXXXXX",
"XXXXXXXXXXXXXXXXXXXXXXXXXXXXXXXXXXXXXXXXXXXXXXXXXXXXXXXXXXXXXXXXXXXXXX",
"XXXXXXXXXXXXXXXXXXXXXXXXXXXXXXXXXXXXXXXXXXXXXXXXXXXXXXXXXXXXXXXXXXXXXX",
"XXXXXXXXXXXXXXXXXXXXXXXXXXXXXXXXXXXXXXXXXXXXXXXXXXXXXXXXXXXXXXXXXXXXXX",
"XXXXXXXXXXXXXXXXXXXXXXXXXXXXXXXXXXXXXXXXXXXXXXXXXXXXXXXXXXXXXXXXXXXXXX"
};
