/* XPM */
static char *_9dfaa61eb1142e1b93b6c361057c2daKX3pxt7gOmgEFuI6[] = {
/* columns rows colors chars-per-pixel */
"64 64 145 2 ",
"   c black",
".  c #010C00",
"X  c #030D02",
"o  c #021300",
"O  c #051103",
"+  c #0A1000",
"@  c #0D1401",
"#  c #061C02",
"$  c #091A07",
"%  c #091C0A",
"&  c #111801",
"*  c #0E0C11",
"=  c #042100",
"-  c #062500",
";  c #0A2003",
":  c #0B2504",
">  c #0A2900",
",  c #0C210C",
"<  c #112001",
"1  c #112002",
"2  c #1C2701",
"3  c #1C2702",
"4  c #112800",
"5  c #152803",
"6  c #192A07",
"7  c #0A3100",
"8  c #0C3801",
"9  c #133500",
"0  c #173004",
"q  c #1F3601",
"w  c #1C3606",
"e  c #133509",
"r  c #132E15",
"t  c #192219",
"y  c #202D03",
"u  c #243103",
"i  c #283A06",
"p  c #2D3C04",
"a  c #272C17",
"s  c #0E4300",
"d  c #124302",
"f  c #2B4709",
"g  c #2F4A0B",
"h  c #374E0A",
"j  c #38431B",
"k  c #1F7301",
"l  c #21610D",
"z  c #24620E",
"x  c #277B03",
"c  c #227F01",
"v  c #276612",
"b  c #276E11",
"n  c #2A7412",
"m  c #2D7516",
"M  c #2E7D16",
"N  c #33731C",
"B  c #347C1C",
"V  c #2D4324",
"C  c #324120",
"Z  c #357621",
"A  c #238001",
"S  c #258501",
"D  c #278901",
"F  c #298B02",
"G  c #2C8F03",
"H  c #2F8C09",
"J  c #2A9501",
"K  c #2F9504",
"L  c #319C03",
"P  c #369E0A",
"I  c #338219",
"U  c #34841A",
"Y  c #388D1E",
"T  c #3A951E",
"R  c #36A406",
"E  c #31A801",
"W  c #32AA01",
"Q  c #33AC02",
"!  c #35AE03",
"~  c #37A10A",
"^  c #3CAE0B",
"/  c #39B405",
"(  c #3DB707",
")  c #3EB906",
"_  c #3FB50B",
"`  c #3FBA09",
"'  c #388420",
"]  c #3D8425",
"[  c #3E9721",
"{  c #6E900C",
"}  c #72940D",
"|  c #6C8D13",
" . c #789B13",
".. c #7B9D14",
"X. c #7EA310",
"o. c #7FA218",
"O. c #41852A",
"+. c #439C27",
"@. c #439429",
"#. c #45952C",
"$. c #458332",
"%. c #4D9436",
"&. c #4B9B32",
"*. c #48A12C",
"=. c #50A038",
"-. c #55A53C",
";. c #44C50D",
":. c #46C90E",
">. c #48CA11",
",. c #82A717",
"<. c #80A31C",
"1. c #87AE18",
"2. c #83A81C",
"3. c #87AD1E",
"4. c #8EB714",
"5. c #8DB41B",
"6. c #90BA13",
"7. c #93BE17",
"8. c #8AAF20",
"9. c #91B820",
"0. c #92BA20",
"q. c #95BC27",
"w. c #92B628",
"e. c #93B532",
"r. c #96C119",
"t. c #97C31A",
"y. c #9CC71F",
"u. c #99C025",
"i. c #9BC325",
"p. c #9ECA20",
"a. c #A1CE22",
"s. c #A5CE2D",
"d. c #A3D025",
"f. c #A6D327",
"g. c #ABD82A",
"h. c #ADDA2B",
"j. c #AFDC2C",
"k. c #B1DF2E",
"l. c #B6E333",
"z. c #BCEB37",
"x. c #BCA154",
"c. c #C1A767",
"v. c #A6AC98",
"b. c #C9B481",
"n. c #CFC093",
/* pixels */
"x.x.x.x.x.x.x.x.x.x.x.x.x.x.x.x.x.x.x.x.x.x.x.x.x.x.x.x.b.b.x.x.$ $ $ $ $ $ $ $ $ $ $ $ $ $ $ $ $ $ $ $ $ $ $ $ $ $ $ $ $ $ $ $ ",
"x.x.x.x.x.x.x.x.x.x.x.x.x.x.x.x.x.x.x.x.x.x.x.x.x.x.x.x.b.b.x.x.$ $ $ $ $ $ $ $ $ $ $ $ $ $ $ $ $ $ $ $ $ $ $ $ $ $ $ $ $ $ $ $ ",
"x.x.x.x.x.x.n.n.n.n.n.n.n.n.n.n.n.n.n.n.n.n.n.n.n.n.x.x.x.x.x.x.$ $ $ $ , , , , , , , , , , , , , , , , , , , , , , , , $ $ $ $ ",
"x.x.x.x.n.n.n.n.n.n.n.n.n.n.n.n.n.n.n.n.n.n.n.n.n.n.n.n.x.x.x.x.$ $ , , , , , , , , , , , , , , , , , , , , , , , , , , , $ $ $ ",
"x.x.x.n.n.n.c.c.c.c.c.c.c.c.x.x.c.c.c.c.c.c.c.c.c.c.n.n.n.x.x.x.$ $ , , , , $ $ $ $ , , , , , $ $ $ $ $ $ $ $ $ $ $ , , , , $ $ ",
"x.x.x.n.n.c.c.c.c.c.c.c.c.c.x.x.x.c.c.c.c.c.c.c.c.c.c.c.n.n.x.x.$ $ , , $ $ $ $ $ $ r r , , $ $ $ $ $ $ $ $ $ $ $ $ $ , , , $ $ ",
"x.x.n.n.c.c.c.c.c.c.x.x.x.x.x.x.x.x.c.c.c.c.c.c.c.c.c.c.n.n.x.x.$ $ , , $ $ $ $ $ $ $ r r , $ $ $ $ $ $ $ $ $ $ $ $ $ $ , , $ $ ",
"x.x.n.n.c.c.c.c.x.x.x.x.x.x.x.x.x.x.c.c.c.c.c.c.c.c.c.c.n.n.x.x.$ $ , , $ $ $ $ $ $ $ $ r r , , $ $ $ $ $ $ $ $ $ $ $ $ , , $ $ ",
"x.x.n.n.c.c.c.x.x.x.x.x.x.x.x.x.x.x.c.c.c.c.c.c.c.c.c.c.n.n.x.x.$ $ , , $ $ $ % % $ $ $ $ r r , , $ $ $ $ $ $ $ $ $ $ $ , , $ $ ",
"x.x.n.n.c.c.x.x.x.x.x.x.x.x.x.x.c.c.c.c.c.c.c.c.c.c.c.c.n.b.x.x.$ $ , , $ $ $ $ % % $ $ $ $ r r , , $ $ $ $ $ $ $ $ $ $ , , $ $ ",
"x.x.n.n.c.c.c.x.x.x.x.x.x.x.c.c.c.c.c.c.c.c.c.c.c.c.c.c.n.n.x.x.$ $ , , , $ $ $ % % % % $ $ $ + & @ , , , , $ $ $ $ $ $ , , $ $ ",
"x.x.n.n.c.c.c.c.c.x.x.x.c.c.c.c.c.c.c.c.c.X X X   c.& @ @ 6 @ @ @ @ @ , , , $ $ $ % % % % @ y 8.q.2.u , , , , , $ $ $ $ , , $ $ ",
"x.x.n.n.c.c.c.c.c.c.c.c.c.c.c.X X X X c.X m I v 1 u 8.i.q.0.0.0.5.5.o.6 @ , , $ $ $ % % u 8.i.a.f.f.o.@ r r , , , $ $ $ , , $ $ ",
"x.x.n.n.c.c.c.c.c.c.c.c.c.c.: ] @.] B # X n n f 8.i.h.l.k.a.q.5.5.5.p.5.| 5 O $ $ $ $ u w.j.g.d.0.a.0.y r r r r , $ $ $ , , $ $ ",
"x.x.n.n.c.c.c.c.c.c.c.c.c.o O.@.*.+.[ ' m # i w.l.k.h.j.k.8.i 5 5 i o.5.h $.' O $ $ u 8.g.f.d.o.i ..a.8.@ $ r r r , , , , , $ $ ",
"x.x.n.n.c.c.c.c.c.c.c.c.c.O Z 0 ' [ [ H n w w.z.z.l.j.g.2.h O.&.-.%.g o.o.C O   + y 2.g.f.f.0.3   2 9.9.& $ $ $ r r , , , , $ $ ",
"x.x.n.n.c.c.c.c.c.c.c.c.c.c.X x.; M Y n f w.z.z.z.z.l.u.p ] #.&.=.-.%.i e.v.* X ..5.p.g.f.a.5.+   + 5.0.& $ $ $ $ r r , , , $ $ ",
"x.x.n.n.c.c.c.c.c.c.c.c.c.c.  x.x.O l w w.z.z.z.z.z.l.u.i N w 5 6 V $.5 2.j   + 5.a.p.g.f.p.5.+   + 5.5.@ % $ $ $ $ r , , , $ $ ",
"x.x.n.n.c.c.c.c.c.c.c.c.c.x.x.x.X X X 2 s.z.z.z.z.l.k.f.1.h ..5.e.v.t @ 8.o.2 2 5.p.a.g.f.p.5.+   + 5.8.& % % $ $ $ $ $ , , $ $ ",
"x.x.n.n.c.c.c.c.c.c.c.c.c.x.x.# n b ; 3.l.z.z.z.l.h.f.f.p.5.y.p.5.a   + 4.p.4.5.y.p.p.g.f.a.4.+   + 5.5.@ % % % $ $ $ $ , , $ $ ",
"x.x.n.n.c.c.c.c.c.c.c.c.c.x.# M H M 2 i.k.l.z.l.h.f.f.d.p.p.p.p.5.2   + 5.p.p.p.y.t.y.g.f.a.4.+   + 5.5.@ $ $ % % $ $ $ , , $ $ ",
"x.x.n.n.c.c.c.c.c.c.c.c.c.X B [ T M 5 i.k.k.l.h.f.f.a.y.p.p.p.p.i.2.2 2 5.p.p.y.t.t.y.g.f.a.8.+   + 5.5.@ % $ % % $ $ $ , , $ $ ",
"x.x.n.n.c.c.c.c.c.c.c.X c.; Y [ +.I 5 q.k.k.k.d.a.a.p.p.p.p.p.p.p.p.5.5.p.y.y.t.t.t.t.g.f.a.8.+   + 5.0.@ % % % % $ $ $ , , $ $ ",
"x.x.n.n.c.c.c.c.c.c.O Z e ] +.[ T M 5 q.a.f.f.f.p.p.p.p.p.y.y.p.p.p.p.p.p.t.7.t.t.7.7.f.h.f.5.2   2 5.0.& % % % $ $ $ $ , , $ $ ",
"x.x.n.n.c.c.c.c.c.c.O ] @.&.+.T T M 5 1.f.a.f.a.y.p.y.p.p.p.p.p.p.p.y.p.t.t.t.t.7.7.4.7.f.h.f.2.i ,.y.2.@ % % $ $ $ $ $ , , $ $ ",
"x.x.n.n.c.c.c.c.c.c.c.: ' +.+.[ T b # 1.y.y.a.y.p.p.p.p.y.a.p.p.p.y.t.t.t.t.t.7.7.6.6.6.7.y.h.a.9.y.5.y % $ $ $ $ $ $ $ , , $ $ ",
"x.x.x.n.n.c.c.c.c.c.c.c.; B U U n > < ..t.t.t.y.p.y.p.p.y.y.y.a.t.t.t.t.r.r.5.r.6.4.X.,.} p 8.f.a.a.2.@ $ $ $ $ $ $ $ , , , $ $ ",
"x.x.x.n.n.c.c.c.c.c.c.c.c.X X X # v z 0  .t.t.t.t.t.y.y.a.y.t.r.t.t.t.t.r.6.7.6.4.} 2 + +   y 8.0...6 $ $ $ $ $ $ $ $ , , , $ $ ",
"x.x.x.x.n.n.n.n.n.n.n.n.n.n.n.n.n.X X   2 ..t.t.t.t.r.y.r.r.r.r.t.7.t.7.7.6.6.,.} 2 , , , , , & & @ , , , , , , , , , , , $ $ $ ",
"x.x.x.x.x.n.n.n.n.n.n.n.n.n.n.n.n.n.n.n.n.2 ..7.t.t.7.t.y.r.r.7.7.7.6.6.6.6.} 2 + , , , , , , , , , , , , , , , , , , , , $ $ $ ",
"x.x.x.x.x.x.x.x.x.x.x.x.x.x.x.x.x.x.x.x.x.x.y } ,.7.t.7.r.7.7.7.7.6.6.4.X.} 2 # $ $ $ $ $ $ $ $ $ $ $ $ $ $ $ $ $ $ $ $ $ $ $ $ ",
"x.x.x.x.x.x.x.x.x.x.x.x.x.x.x.x.x.x.x.x.x.x.x.+ 2  .6.6.7.7.7.6.X.,.X.} 2 + $ $ $ $ $ $ $ $ $ $ $ $ $ $ $ $ $ $ $ $ $ $ $ $ $ $ ",
"$ $ $ $ $ $ $ $ $ $ $ $ $ $ $ $ $ $ $ $ $ $ $ $ $ 2 } X.X.X.X.} q & + + b.n.n.n.n.n.n.n.n.n.n.n.n.n.n.n.n.n.n.n.n.n.n.n.n.n.n.n.",
"$ $ $ $ $ $ $ $ $ $ $ $ $ $ $ $ $ $ $ $ $ $ $ $ $ $ + X > 4 > 9 S k X n.n.n.n.n.n.b.n.n.n.n.n.n.n.n.n.n.n.n.n.n.n.n.n.n.n.n.n.n.",
"$ $ $ , , , , , , , , , , , , , , , , , , , , , , , , X x A A A S = n.c.c.c.c.c.c.c.c.c.c.c.c.c.c.c.c.c.c.c.c.c.c.c.c.c.c.n.n.n.",
"$ $ $ , , , , , , , , , , , , , , , , , , , , , , , , % o X = = =   c.c.c.c.c.c.c.c.c.c.c.c.c.c.c.c.c.c.c.c.c.c.c.c.c.c.c.n.n.n.",
"$ $ , , , $ $ $ $ $ $ $ $ $ $ $ $ , , , r r $ $ $ $ $ , , X S L S X c.c.c.c.c.c.c.x.x.c.c.c.c.c.c.c.c.c.c.c.c.c.x.x.x.c.c.c.n.n.",
"$ $ , , , $ $ $ $ $ $ $ $ $ $ $ $ $ $ , r r r $ $ $ $ $ , X L Q J O c.c.c.c.c.x.x.x.x.x.x.c.c.c.c.c.c.c.c.c.x.x.x.x.x.c.c.c.n.n.",
"$ $ , , $ $ $ $ $ $ $ $ $ $ $ $ $ $ $ , , r r r $ $ $ $ , o L ! S X c.c.c.c.c.x.x.x.x.x.x.c.c.c.c.c.c.c.c.c.x.x.x.x.x.x.c.c.n.n.",
"$ $ , , $ $ $ $ $ $ $ $ $ $ $ $ $ $ $ $ $ , r r $ $ $ $ , o L L = n.c.c.c.c.x.x.x.x.x.x.x.x.x.c.c.c.c.c.c.c.x.x.x.x.x.x.c.c.n.n.",
"$ $ , , $ $ $ % $ $ $ % % % % $ $ $ $ $ $ $ $ $ $ $ $ $ % o L L o n.c.c.c.c.x.x.x.x.x.x.x.x.x.c.c.c.c.c.c.c.c.x.x.x.x.c.c.c.n.n.",
"$ $ , , $ $ $ % $ $ % % % % % % $ $ $ $ $ $ $ $ $ # $ $ , X ~ L o n.c.o o o o o x.x.x.x.x.x.x.x.x.c.c.c.c.c.c.c.c.x.c.c.c.c.n.n.",
"$ $ , , $ $ $ % $ $ % % % % % % % % % % % % % % o o o X o - K P % b.- K ~ _ P J X x.x.x.x.x.x.x.x.x.c.c.c.c.c.c.c.c.c.c.c.c.n.n.",
"$ $ , , $ $ $ $ $ % % % % % % % % % % % % % o 7 P ^ R R L F 8 K = X J _ P P 8 - o o o o x.x.x.x.x.x.c.c.c.c.c.c.c.c.c.c.c.c.n.n.",
"$ $ , , $ $ $ $ $ % % % % % % % % % % % % o P _ ;.;.` ) ` L > R K = P J 8 7 F K L L L K = o x.x.x.c.c.c.c.c.c.c.c.c.c.c.c.c.n.n.",
"$ $ , , $ $ $ % $ $ % % % % % % % % % % % > P _ _ R R R ` L 8 K ~ 8 x s D J ! / / / ) ) R K - c.c.c.c.c.c.c.c.c.c.c.c.c.c.c.n.n.",
"$ $ , , $ $ % % $ $ % % % % $ $ % % % % X x 8 > 7 > = 8 J L A 8 ^ P 7 S E ! ! / / / ` ` ` ` K X c.c.c.c.c.c.c.x.x.x.c.c.c.c.n.n.",
"$ $ , , $ % % % $ $ % % % % $ $ % % % % o 8 K ~ L L L D 8 # = = K K 7 J E ! ! / / / / _ ` ` ^ > c.c.c.c.c.c.c.x.x.x.x.c.c.c.n.n.",
"$ $ , , % % % % $ $ % % % $ $ $ % % $ > P ~ ) ` ` ( / / L J K F 7 7 F E ! ! ! / / / / ` ` ` ;.P % c.c.c.c.c.x.x.x.x.x.c.c.c.n.n.",
"$ $ , , % % % $ $ $ % % % $ $ $ % % 7 P ;.:.` ` _ ( / / / Q Q Q J J E E ! ! E ! / / / P ` ;.>.^ o c.c.c.c.x.x.x.x.x.x.c.c.c.n.n.",
"$ $ , , % % $ $ r r r , , $ $ $ $ o P ;.:.;.` _ ( ( / / / Q ! ! E E E Q Q ! ! ! ! L F 8 K ^ ;.P o c.c.c.x.x.x.x.x.x.c.c.c.c.n.n.",
"$ $ , , % $ $ $ $ r r , , $ $ $ $ o ^ ;.;.;.` ` ( / / / ) ! ! Q E E J E E Q ! ! F > X c.> s P > c.c.c.x.x.x.x.x.x.c.c.c.c.c.n.n.",
"$ $ , , $ $ % % $ $ r r , , $ $ $ o _ >.;.R R ) ( / / / / Q ! ! E S 7 F E E ! F = x.x.o J P P o c.c.x.x.x.x.x.x.c.c.c.c.c.c.n.n.",
"$ $ , , $ $ % % $ $ r r , , $ $ $ # _ >.~ - = K L E Q ( Q Q ! J S = c.- S J S = x.x.x.x.# o o c.x.x.x.x.x.x.x.c.c.c.c.c.c.c.n.n.",
"$ $ , , % % % % % $ $ r r , , $ $ o _ ` d $ $ o o = D J K J D = o n.c.c.X o o x.x.x.x.x.x.x.x.x.x.x.x.x.x.x.c.c.c.c.c.c.c.c.n.n.",
"$ $ , , % % % % % $ $ r r , , , $ o P _ H o $ % % % o o o o o $ n.n.c.c.c.c.x.x.x.x.x.x.x.x.x.x.x.x.x.x.x.c.c.c.c.c.c.c.c.c.n.n.",
"$ $ , , $ $ % % % % $ $ r r , , , , o o o $ % % % $ $ $ , , $ $ n.n.c.c.c.c.c.x.x.x.x.x.x.x.x.x.x.x.x.x.c.c.c.c.c.c.c.c.c.c.n.n.",
"$ $ , , $ $ $ % % % $ $ $ r r r , , $ $ $ $ $ $ $ $ $ $ , , $ $ n.n.c.c.c.c.c.c.x.x.x.x.x.x.x.x.x.x.x.x.c.c.c.c.c.c.c.c.c.c.n.n.",
"$ $ , , , $ $ $ % % $ $ $ $ r r , , , $ $ $ $ $ $ $ $ $ , , $ $ n.n.c.c.c.c.c.c.x.x.x.x.x.x.x.x.x.x.x.c.c.c.c.c.c.c.c.c.c.c.n.n.",
"$ $ , , , , $ $ % % $ $ $ $ r , , , , , $ $ $ $ $ $ , , , , $ $ n.n.c.c.c.c.c.c.c.x.x.x.x.x.x.x.x.x.x.c.c.c.c.c.c.c.c.c.c.c.n.n.",
"$ $ $ , , , , , , , , , , , , , , , , , , , , , , , , , % % $ $ n.n.c.c.c.c.c.c.c.x.x.x.c.c.c.x.x.x.c.c.c.c.c.c.c.c.c.c.c.n.n.n.",
"$ $ $ $ , , , , , , , , , , , , , , , , , , , , , , , , $ $ $ $ n.n.n.n.c.c.c.c.c.c.x.x.c.c.c.c.x.x.c.c.c.c.c.c.c.c.c.c.n.n.n.n.",
"$ $ $ $ $ $ $ $ $ $ $ $ $ $ $ $ $ $ $ $ $ $ $ $ $ $ $ $ $ $ $ $ n.n.n.n.n.n.n.n.n.n.n.n.n.n.n.n.n.n.n.n.n.n.n.n.n.n.n.n.n.n.n.n.",
"$ $ $ $ $ $ $ $ $ $ $ $ $ $ $ $ $ $ $ $ $ $ $ $ $ $ $ $ $ $ $ $ n.n.n.n.n.n.n.n.n.n.n.n.n.n.n.n.n.n.n.n.n.n.n.n.n.n.n.n.n.n.n.n."
};
