/* XPM */
static char *xpm_[] = {
/* columns rows colors chars-per-pixel */
"70 70 9 1 ",
"  c #272A2A",
". c #2F3B3A",
"X c gray28",
"o c #4C7573",
"O c #468E8C",
"+ c #8E8E8E",
"@ c #80C4C3",
"# c #CDCDCD",
"$ c white",
/* pixels */
"                                                                      ",
"                                                                      ",
"                                                                      ",
"                                                                      ",
"                                                                      ",
"          XXXXX$$$$$$$$$$####################$$$$$$$$$$XXXXX          ",
"          XXXXX$$$$$$$$$$####################$$$$$$$$$$XXXXX          ",
"          XXXXX$$$$$$$$$$####################$$$$$$$$$$XXXXX          ",
"          XXXXX$$$$$$$$$$####################$$$$$$$$$$XXXXX          ",
"          XXXXX$$$$$$$$$$####################$$$$$$$$$$XXXXX          ",
"     XXXXX$$$$$........................................$$$$$XXXXX     ",
"     XXXXX$$$$$........................................$$$$$XXXXX     ",
"     XXXXX$$$$$........................................$$$$$XXXXX     ",
"     XXXXX$$$$$........................................$$$$$XXXXX     ",
"     XXXXX$$$$$........................................$$$$$XXXXX     ",
"     $$$$$.....@@@@@@@@@@@@@@@@@@@@@@@@@@@@@@@@@@@@@@@@.....$$$$$     ",
"     $$$$$.....@@@@@@@@@@@@@@@@@@@@@@@@@@@@@@@@@@@@@@@@.....$$$$$     ",
"     $$$$$.....@@@@@@@@@@@@@@@@@@@@@@@@@@@@@@@@@@@@@@@@.....$$$$$     ",
"     $$$$$.....@@@@@@@@@@@@@@@@@@@@@@@@@@@@@@@@@@@@@@@@.....$$$$$     ",
"     $$$$$.....@@@@@@@@@@@@@@@@@@@@@@@@@@@@@@@@@@@@@@@@.....$$$$$     ",
"     $$$$$.....@@@@@OOOOOOOOOOOOOOOOOOOOOOOOOOOOOO@@@@@.....$$$$$     ",
"     $$$$$.....@@@@@OOOOOOOOOOOOOOOOOOOOOOOOOOOOOO@@@@@.....$$$$$     ",
"     $$$$$.....@@@@@OOOOOOOOOOOOOOOOOOOOOOOOOOOOOO@@@@@.....$$$$$     ",
"     $$$$$.....@@@@@OOOOOOOOOOOOOOOOOOOOOOOOOOOOOO@@@@@.....$$$$$     ",
"     $$$$$.....@@@@@OOOOOOOOOOOOOOOOOOOOOOOOOOOOOO@@@@@.....$$$$$     ",
"     #####.....OOOOOOOOOOOOOOOOOOOOOOOOOOOOOOOOOOOOOOOO.....#####     ",
"     #####.....OOOOOOOOOOOOOOOOOOOOOOOOOOOOOOOOOOOOOOOO.....#####     ",
"     #####.....OOOOOOOOOOOOOOOOOOOOOOOOOOOOOOOOOOOOOOOO.....#####     ",
"     #####.....OOOOOOOOOOOOOOOOOOOOOOOOOOOOOOOOOOOOOOOO.....#####     ",
"     #####.....OOOOOOOOOOOOOOOOOOOOOOOOOOOOOOOOOOOOOOOO.....#####     ",
"     #####.....OOOOOOOOOOOOOOOOOOOOOOOOOOOOOOOOOOOOOOOO.....#####     ",
"     #####.....OOOOOOOOOOOOOOOOOOOOOOOOOOOOOOOOOOOOOOOO.....#####     ",
"     #####.....OOOOOOOOOOOOOOOOOOOOOOOOOOOOOOOOOOOOOOOO.....#####     ",
"     #####.....OOOOOOOOOOOOOOOOOOOOOOOOOOOOOOOOOOOOOOOO.....#####     ",
"     #####.....OOOOOOOOOOOOOOOOOOOOOOOOOOOOOOOOOOOOOOOO.....#####     ",
"     #####.....OOOOOOOOOOOOOOOOOOOOOOOOOOOOOOOOOOOOOOOO.....#####     ",
"     #####.....OOOOOOOOOOOOOOOOOOOOOOOOOOOOOOOOOOOOOOOO.....#####     ",
"     #####.....OOOOOOOOOOOOOOOOOOOOOOOOOOOOOOOOOOOOOOOO.....#####     ",
"     #####.....OOOOOOOOOOOOOOOOOOOOOOOOOOOOOOOOOOOOOOOO.....#####     ",
"     #####.....OOOOOOOOOOOOOOOOOOOOOOOOOOOOOOOOOOOOOOOO.....#####     ",
"     #####.....OOOOOOOOOOOOOOOOOOOOOOOOOOOOOOOOOOOOOOOO.....#####     ",
"     #####.....OOOOOOOOOOOOOOOOOOOOOOOOOOOOOOOOOOOOOOOO.....#####     ",
"     #####.....OOOOOOOOOOOOOOOOOOOOOOOOOOOOOOOOOOOOOOOO.....#####     ",
"     #####.....OOOOOOOOOOOOOOOOOOOOOOOOOOOOOOOOOOOOOOOO.....#####     ",
"     #####.....OOOOOOOOOOOOOOOOOOOOOOOOOOOOOOOOOOOOOOOO.....#####     ",
"     #####.....oooooOOOOOOOOOOOOOOOOOOOOOOOOOOOOOOooooo.....#####     ",
"     #####.....oooooOOOOOOOOOOOOOOOOOOOOOOOOOOOOOOooooo.....#####     ",
"     #####.....oooooOOOOOOOOOOOOOOOOOOOOOOOOOOOOOOooooo.....#####     ",
"     #####.....oooooOOOOOOOOOOOOOOOOOOOOOOOOOOOOOOooooo.....#####     ",
"     #####.....oooooOOOOOOOOOOOOOOOOOOOOOOOOOOOOOOooooo.....#####     ",
"     +++++.....oooooooooooooooooooooooooooooooooooooooo.....+++++     ",
"     +++++.....oooooooooooooooooooooooooooooooooooooooo.....+++++     ",
"     +++++.....oooooooooooooooooooooooooooooooooooooooo.....+++++     ",
"     +++++.....oooooooooooooooooooooooooooooooooooooooo.....+++++     ",
"     +++++.....oooooooooooooooooooooooooooooooooooooooo.....+++++     ",
"     XXXXX+++++........................................+++++XXXXX     ",
"     XXXXX+++++........................................+++++XXXXX     ",
"     XXXXX+++++........................................+++++XXXXX     ",
"     XXXXX+++++........................................+++++XXXXX     ",
"     XXXXX+++++........................................+++++XXXXX     ",
"          XXXXX#####++++++++++++++++++++++++++++++#####XXXXX          ",
"          XXXXX#####++++++++++++++++++++++++++++++#####XXXXX          ",
"          XXXXX#####++++++++++++++++++++++++++++++#####XXXXX          ",
"          XXXXX#####++++++++++++++++++++++++++++++#####XXXXX          ",
"          XXXXX#####++++++++++++++++++++++++++++++#####XXXXX          ",
"                                                                      ",
"                                                                      ",
"                                                                      ",
"                                                                      ",
"                                                                      "
};
