/* XPM */
static char *xpm_[] = {
/* columns rows colors chars-per-pixel */
"70 70 8 1 ",
"  c black",
". c #1B1C1D",
"X c #202121",
"o c #33383F",
"O c gray31",
"+ c #B4B4B4",
"@ c #BCBCBC",
"# c white",
/* pixels */
"                                                                      ",
"                                                                      ",
"                                                                      ",
"                                                                      ",
"                                                                      ",
"     ..........XXXXX+++++####################+++++XXXXX..........     ",
"     ..........XXXXX+++++####################+++++XXXXX..........     ",
"     ..........XXXXX+++++####################+++++XXXXX..........     ",
"     ..........XXXXX+++++####################+++++XXXXX..........     ",
"     ..........XXXXX+++++####################+++++XXXXX..........     ",
"     .....#####XXXXX+++++oooooooooooooooooooo+++++XXXXX#####          ",
"     .....#####XXXXX+++++oooooooooooooooooooo+++++XXXXX#####          ",
"     .....#####XXXXX+++++oooooooooooooooooooo+++++XXXXX#####          ",
"     .....#####XXXXX+++++oooooooooooooooooooo+++++XXXXX#####          ",
"     .....#####XXXXX+++++oooooooooooooooooooo+++++XXXXX#####          ",
"     ##########XXXXXooooo@@@@@@@@@@@@@@@@@@@@oooooXXXXX##########     ",
"     ##########XXXXXooooo@@@@@@@@@@@@@@@@@@@@oooooXXXXX##########     ",
"     ##########XXXXXooooo@@@@@@@@@@@@@@@@@@@@oooooXXXXX##########     ",
"     ##########XXXXXooooo@@@@@@@@@@@@@@@@@@@@oooooXXXXX##########     ",
"     ##########XXXXXooooo@@@@@@@@@@@@@@@@@@@@oooooXXXXX##########     ",
"     #####+++++ooooo@@@@@@@@@@##########@@@@@@@@@@ooooo+++++#####     ",
"     #####+++++ooooo@@@@@@@@@@##########@@@@@@@@@@ooooo+++++#####     ",
"     #####+++++ooooo@@@@@@@@@@##########@@@@@@@@@@ooooo+++++#####     ",
"     #####+++++ooooo@@@@@@@@@@##########@@@@@@@@@@ooooo+++++#####     ",
"     #####+++++ooooo@@@@@@@@@@##########@@@@@@@@@@ooooo+++++#####     ",
"     XXXXXooooo@@@@@@@@@@####################@@@@@@@@@@oooooXXXXX     ",
"     XXXXXooooo@@@@@@@@@@####################@@@@@@@@@@oooooXXXXX     ",
"     XXXXXooooo@@@@@@@@@@####################@@@@@@@@@@oooooXXXXX     ",
"     XXXXXooooo@@@@@@@@@@####################@@@@@@@@@@oooooXXXXX     ",
"     XXXXXooooo@@@@@@@@@@####################@@@@@@@@@@oooooXXXXX     ",
"     #####ooooo@@@@@##########          ##########@@@@@ooooo#####     ",
"     #####ooooo@@@@@##########          ##########@@@@@ooooo#####     ",
"     #####ooooo@@@@@##########          ##########@@@@@ooooo#####     ",
"     #####ooooo@@@@@##########          ##########@@@@@ooooo#####     ",
"     #####ooooo@@@@@##########          ##########@@@@@ooooo#####     ",
"     #####XXXXX@@@@@##########          ##########@@@@@XXXXX#####     ",
"     #####XXXXX@@@@@##########          ##########@@@@@XXXXX#####     ",
"     #####XXXXX@@@@@##########          ##########@@@@@XXXXX#####     ",
"     #####XXXXX@@@@@##########          ##########@@@@@XXXXX#####     ",
"     #####XXXXX@@@@@##########          ##########@@@@@XXXXX#####     ",
"     #####XXXXX@@@@@@@@@@####################@@@@@@@@@@XXXXX#####     ",
"     #####XXXXX@@@@@@@@@@####################@@@@@@@@@@XXXXX#####     ",
"     #####XXXXX@@@@@@@@@@####################@@@@@@@@@@XXXXX#####     ",
"     #####XXXXX@@@@@@@@@@####################@@@@@@@@@@XXXXX#####     ",
"     #####XXXXX@@@@@@@@@@####################@@@@@@@@@@XXXXX#####     ",
"     #####+++++XXXXX@@@@@@@@@@##########@@@@@@@@@@XXXXX+++++#####     ",
"     #####+++++XXXXX@@@@@@@@@@##########@@@@@@@@@@XXXXX+++++#####     ",
"     #####+++++XXXXX@@@@@@@@@@##########@@@@@@@@@@XXXXX+++++#####     ",
"     #####+++++XXXXX@@@@@@@@@@##########@@@@@@@@@@XXXXX+++++#####     ",
"     #####+++++XXXXX@@@@@@@@@@##########@@@@@@@@@@XXXXX+++++#####     ",
"     ##########XXXXXXXXXX@@@@@@@@@@@@@@@@@@@@XXXXXXXXXX##########     ",
"     ##########XXXXXXXXXX@@@@@@@@@@@@@@@@@@@@XXXXXXXXXX##########     ",
"     ##########XXXXXXXXXX@@@@@@@@@@@@@@@@@@@@XXXXXXXXXX##########     ",
"     ##########XXXXXXXXXX@@@@@@@@@@@@@@@@@@@@XXXXXXXXXX##########     ",
"     ##########XXXXXXXXXX@@@@@@@@@@@@@@@@@@@@XXXXXXXXXX##########     ",
"     +++++#####+++++XXXXXXXXXXXXXXXXXXXXXXXXXXXXXX+++++#####+++++     ",
"     +++++#####+++++XXXXXXXXXXXXXXXXXXXXXXXXXXXXXX+++++#####+++++     ",
"     +++++#####+++++XXXXXXXXXXXXXXXXXXXXXXXXXXXXXX+++++#####+++++     ",
"     +++++#####+++++XXXXXXXXXXXXXXXXXXXXXXXXXXXXXX+++++#####+++++     ",
"     +++++#####+++++XXXXXXXXXXXXXXXXXXXXXXXXXXXXXX+++++#####+++++     ",
"     OOOOO+++++#####XXXXX+++++##########+++++XXXXX#####+++++OOOOO     ",
"     OOOOO+++++#####XXXXX+++++##########+++++XXXXX#####+++++OOOOO     ",
"     OOOOO+++++#####XXXXX+++++##########+++++XXXXX#####+++++OOOOO     ",
"     OOOOO+++++#####XXXXX+++++##########+++++XXXXX#####+++++OOOOO     ",
"     OOOOO+++++#####XXXXX+++++##########+++++XXXXX#####+++++OOOOO     ",
"                                                                      ",
"                                                                      ",
"                                                                      ",
"                                                                      ",
"                                                                      "
};
